<mxfile host="65bd71144e">
    <diagram id="0Fg2mJdzaYBwTOp4pLWu" name="Page-1">
        <mxGraphModel dx="930" dy="516" grid="1" gridSize="10" guides="1" tooltips="1" connect="1" arrows="1" fold="1" page="1" pageScale="1" pageWidth="850" pageHeight="1100" math="0" shadow="0">
            <root>
                <mxCell id="0"/>
                <mxCell id="1" parent="0"/>
                <mxCell id="2" value="" style="shape=stencil(lZzbstzGDUW/Rq+svl+eHec/XGU5VsWxXLKcy98HHaV5hhucNT5v8jHAaXYD6I0NgB/yd7///MNvHz+k8PvXL5///vFfn378+vOH/JcPKX369eePXz59tX99yN9/yN/99PnLx799+fzHrz9+++/ffliS61//+PzP9YR/f9NLRytLKYX/fPtDjMec//vLX7/J//Lp14t8Tlf5etRE8jFc5ceR83P589e3fApHHSifr/LpCI3kR7zKlyNUku/y/Ho02J94tHqV73vHnsjXdpUfx0T5cpXPtj+4n/l6vtn2B9efrvuT817hE/lwPa9cjxCey4dj9qt8OwrsfziGyPdjwPrD0UV+HjmSfLuuv9gv4nra1f5LOgrYp53OdT2lbI94Ji/Pr9sCn8gXWX9H/zJ5Wc84Oq7//2+35Ws4Yn/H+mvcv/hMXp6f0N9t/6/2X/PR8Hy7yJf9hD9nb/XV/os917Yt8Jm/iHxHe4t7t095iw8on67v2+y8YH9cfGj2BIwP5Xq+LW0LfBbfrvGk2Xnh/oh/tXIMjG/9Gm9bOwK+77zeR60fCfYzaXxr46gor/s5j473qdy/PWL8zPvtTnm7YeG+yEeR5+cjFpKfV3/sBZ9ftved8hX3vx65q3yH9TS1525/gfjQb+QbrN/QSFX5DvFharxa8rD+GBSgrAXBAcd0s6JMN3DeAeRBASFNPUrWM0Cf7OoEpkCHYBhvyC+UHVfvvSAobDIFggUp6b1kCoT7zFCTvEM+OgHXtv3kQaHASZsphaQKFErNloZbEinkuE3tcUlwDgu7OYUBu2TgTd3HzgHc2dDblJeueN/kM3w+KExYkuGx4Dx6ggOV6Eyjbx+8V0g7Qp8KY9/q9wo+SE5+h7odciuMwO/Q1JZGxGvEFMZ1SSNhmDGYKBftyOjThhPFgUxhsMK4HtwoCMXL1NzSFBod3LnrDwoEjgy7SuRbCvALNWhsNQWCp9XhI1MocA7VJbxLAeKS4eM8nAItKd2cA0FmQ9SSIwzGYAapo2xrxSTTFHRbK+9S3YbwoNDpHdpRrzhvmEtB9DYYri/dMNwbDpfMyxTojqtTU8HR91HeQ5+wb+UHBbLWFjWQjYHkjGF3id5jYnZqYDxkVeikUDd63AozYBAw+B6jKtCVZfhdYuu0nAaMzxTkpU2BUjBD/MIBzYQ5g0F+SXomB+MejlRUgU7aFKa8tEVvUoiaZ8yMebmlFbmpAnmcIQvJbE1hsoJY6yyYmhgUETQzGZwYsshOgTDfyi3k4CqiSkMWEvlMgaKGIQvhQ02BzLtPp9CQUDRkoUtq+AuGLKKcQ8dgbMgiJVUgznKctnkqDIx8dt8I62EKxKoMB7Dm3AjqmYJkKJMjnwX3Ot+1pK5oxhQCuOgYGlvXwUGYMYUuv2Dwnd5h7pzqwUUpU7TQqycdMLZaJBV6YjD9vULv1UVHxpdekVSurLC9/F4h7xU/ZuxwcCsKCbpnysQUpuN8iDOfVS/2xhn7bBqM7eamjN0cUvIHQx8U7k1BANZCUKQwNGpUTi1NQZlbu6fBWpcHX7fVMgrKskxBwn3hyGcKcqEUJq9MQdn/jKFyOsxXIl7spiAZSgl8cBa2pCBk+waxdYUtUeibQ3160r5kQ9valcHKlR3opPROhYwJx/I4WVLCKpgFAUkHMtPcKy5dzyEHvh9cLroKeWBLC8tfl5Q6Mo+jKvuTGpYyhnvpVNGnhyv+pYInbWhGonfKGO4XlSkKadvvU5AoChFvUQO6QtvFiWROc4RUZPbHUhphdE2BKPuW1bxjR059JX7Xc4iM+SwXlWs31o33n+XTUkY2BcJLNbmXLshK16BEf8zInJSu6UBMCNYtVgs4iS84sqQkc7TUkn4huFx02/s9t9m1+DmQEcjF8YhoeTkp5dAR71nIkpSsIfGTuiumoXOucHL1tYq15FWMqiKPjHrUAFbRb8zT+/W8yu72uJd3blN24n4v35TcKxsE3csXvRMYIsWsfp95Pa5UlDd0vZeP21zOYIq9FOYeUZpZsJY2/eMpWXClt4SdBY6wjhymde85ODQXrnawuA9vyqlGRPyu4haxaO6y2YjFsKJmGblmo4xzRFSQdd/P9P+JeFabJ5SfNcQypZNcO8eLbrUi6eiOiE/EpdQUA1pB1DzOPLhgs4KQoauyCgEw3IAfCshB499q7+Dmp67ytH6HS5bpgC0EvR+WPDZXSeVuyeP+FLcebjbK7n0JxITdSvUgn3A/hfJZYBXfV58fXjS3iW+tE+f9jCpPsNDvf8DQ4M83vDhftR9u7vT2GZD28PYfMOh7/wqbyvnz/ojNfN3ZQ0J7a87+iV4IStq8IaZn5+Xsn89LE8iX/vvO9eR3vq9mj6/20/sjNSfc+SPbw3vlu8vruJlYeHO7X7h5VzjqGF40HwsF0RHfJaUHKuI7l61w519yndYYy5OSrufLP4MlV9MPeLNkbacIWAcqmtgEZASq1nQC4vaqYZlLqHXzTm/iROK4pIbviK45E/dLd2V9I7KTQ8n6iE0pU+umHG9WQqOPp+belTBJwMFzjUmXn7iZNrtpAXTAlVDq8ykHik3tkhvMVkIs0wK8nqkXYsZC4BtcfEP7VLVOWS2/oNe+8ZsPBAAREn3zFW8RLVEq5AihihTVYqWlMoSeu2YnpF8P4/0inByBRAxYUCqfKyqrM04JMLrfyrl9DxcQkeClK4EcI7caBZfrJmxAqUlLBZEbHxY1KjHibG96Sr5WVSBU3twMw1tH7jMCWXCGOTb5zaKo38c4D8c4D7S87koFFgtQIbvBq5NduldoN8kd3QV9aF/PQhBgrSMqL5+Yoh5Z3W21vxPDVTe/fCowQzq6C/ANI9h03bGJuwxmVNy0LlEunQn/kwNa63QtXzlysbq5mbaM1+zsGuZz2VzivcLQKYjMUwfTdd1YqCVychV65aYd/NJTC4zlbAJ7piA+XSKaRgwnCD01MtI16ydEobJtTDc919GpV4leFCbXYae+Q41Y9JzDDaAVbNZbvUtCKba9088UhIWpE8s8Zt9dZo4y0pCmIC/deEhyunu3cUP6LNqhaPGZMvuZlcpYrW+0S0k7FEfgwZqkjQyrXZyiQNRbcXRke+Y5KXuiGe7CHw7eTh42HEPD9+ruoytouMbPjmnscG3KZvDYJNY0xVhOSwruznoIJM80JCVcgYS2qbi66nzVySC2YQpE/Iyklau1TfQO0S1pINoY7uK1k6MrpU9tyTIFIpP7XT8g4UrzSF1Sw9Y4g1i6SxXzybexrwcFmtBY00POIXBJ2fVaVyQMVtuxbGthQiLtFOxBAQmPqKhv8khHD0oeTc4gukvLZsbCtUX34gITzYA013xnCrSk5hKzmZAqaa7euprkqT7rRpxm5LSpOn+I2P5gt6w2yQdsw2/JvXTAfsA1cCH1xYkph6V+wtAObhFZbZtOgaDuGku5bqtdGQQT69ns/aCAxenmhqg6ViWrY2VGQ5rIEFt3ChRba3HzdY3HtFxT8GCEtYao3DwRBbI119VUgaz1ZnKsMe8Q3SxOwzbL6spv6x14XC64XXoxwSd81+ALxRSUkKqIBIrreTcFSptMwcNKCmSlO497MQHfFCUO7gKwpOpmVpMUihvTiugPxY2EG1yhC6UkrbQaXMHWuOjm+Pk7InkqD2dwhdrwLX8WpGtwhajB3NwcPDeHrGFn9+0C7FVxDbWdmb7svh5kCpmKWn4kvGCalRxIfKXQ1OPWkohTL1pE7Tw+mpLLLQsmo77s3RkkxqEfaVkfkaDGOjemtaAvcSf1xvioEyK6gmFv+NKrVOT8gRKO6Eb+TAF73l1toO99vs9oNJ1eDgohoGu3X+fUtWkg7vzlFdfeu+Z2KCS5OZ+KPE5W7qpzpuHmGzt/OSwp1Os80+n4D0s8qLIRNU/vPJsVXS1qYvOZo1csJ+BmBUkmDeHzeoQ1aDwlErSsvfA9ykvBoXE/edBY3V41uwix0gLG9qBfeqsTkYv/8tZ40fwn9l+5eBj2XffAe1LlILjuD/52QtAywBoQw/0X9qImHDgObsQtYjx0bPjLL5lpc/hA0BX0JjYkSQmwa84vDH1d7dlgISWnQeNJSTh06863hBf7n6S9Z75qrhJ5vo+CwojMRU/XDJcLAkz/pcCMqCNocSS/qL+oPeTA33HSwSW7kYnOds1hL6ZBovJeL6bBovICief53ZfeVnsZNk9rMZUnHaPe1wYDqdYUFUpHRvfJ9QZFBJWuG87kKYtLrleJm6eTmxrj5uzkmgS4udl9RyZG/HJkUs5xyeP6tY8iItvgemUijzE4fBW5+csNjq/zYnm3HiIO/HRZxGmf939595W8/ePtM78/ffrll29fCX78//pZYPvTt08K5+//Cw==);lineShape=1;fillColor=#60a917;fontColor=#ffffff;strokeColor=#2D7600;" vertex="1" parent="1">
                    <mxGeometry x="97.31677724903147" y="483.8438895619456" width="669.4501282788249" height="279.17178883870974" as="geometry"/>
                </mxCell>
                <mxCell id="3" value="" style="shape=stencil(rVjbbtswDP2avBKSKErUc7f9R4Gma7CuKdLu9vejF8iJaPu0BfbmOIcyRR5ed3zz8nD7vN+l8PJ6On7b/zrcvT7s+NMupcPTw/50eLWnHX/e8c398bT/ejr+eLo7/36+nZDT0/fjz+mE32c5SRTyJJXCn/ObTFL/vfhyxj8enq7wOVNuA75SkG08Fyo84GOkCj6QGkUdBZRSAAKZWAaBxP2IVQE7j+so0EiQANP035XAdKu2LaBURo3Mapq28UJp9IEwMVDI9BlNVCK1DExELYw+C9BCTHW8b61Q/0KhDHjNVMs2vpGO+rdANQIHSDfHLCAUgYDd2Lm4VWLgMQ4k0QtkQFNulBcqZQaBo92Es0DsobFOCiUZvaaFErh0qf4L1ZQEsVkL5ZF31XgE/KxGjDGYC5MC4unCSiKQSY19ujC7BSRQKI5WygGa1fwaxy8wQ8fZF2TMeMb3CszajPyjSslUQneIJC5H5h6x62atixwZKKCEZH4dM1LpKWSLGWG8M8OALq3n9PnKnbzr+ERVPR7FgvRgvOgTUZXSnh5m3lEEHjDO8IhXeL5Fv4rDI3sanpvHo6qp3l8K/Wv44jI8DDNelMA3sp2p6/EB49klCiqAP4YXj0/4vlocPgC+mf1dxbQ0BFKp4auryDDkjT8p+PMx30r0+mN88/ZhhI+d7hd8BfaZ8KM9a0+rW/ggDo/i3fTX6PCK7ekqk8J6b/jg4zchvlnD589PON6Dj9+I+Vz9fVFhNXxmb0/M/+S7cNQjT/E48tP4gM/Pvl5kFC/q48X4jPOhK8LSA/q/4HP18Z4g/62+uIIaegv/zvoVYP6xfjtHjwf1zvptl59jb6Q2G7ORD7kn4M2+zNcXQR1K9vkkMiTQ1D2PCsVGDY0EzVd4oxAaRGOYTX7VyMG+zIrG+AlLY4wESi/Ss0CDtLZGzqVpqTBPqFAbzVQEBlpV31BXhqOTdWbFzWZGJdSahcUwp9BKEvwGwZr4hiahRbE0tijKFsFf+sr56/Nf9P2W8Qs1sEZnP87VXlLWHbGYSM33HxnZzfUookOfq2Y/K+y4FsFgKQdR1UzqGoTYS+7GCsHFs6ReQrdWAuP52SY7tGMJfrRk6T35ukDp9pgTRoW0sys4Yk9JFeSwy2Zrpl3pZXTdx3mx14A2MpOw372hLtwiTX1VUHABiT5/Rdj1Gr58CJ96EXunPskHTYK7Q8MXj0dTliz2XMZREPTCPnMlrD8vp+KEptbF+QxL2lJ/hmuApX0yXOtN9vddAio2H90Nv423h8si+v7w+HjeY1//7xfX9uq89ObPfwE=);lineShape=1;fillColor=#60a917;fontColor=#ffffff;strokeColor=#2D7600;" vertex="1" parent="1">
                    <mxGeometry x="178.99947244851637" y="553.8087513204664" width="86.48642180054185" height="98.69981072542896" as="geometry"/>
                </mxCell>
                <mxCell id="4" value="" style="shape=stencil(lVbLctswDPwaXTEkwec5Tf8jM3FqTV074zht8/eBqqEswPJ2cpPlXZELLB4DP7ztn153Q3Bvl/Pp5+7P+HzZD/xtCGE87nfn8SJPAz8O/PByOu9+nE/vx+f59+vThJyefp1+T1/4O/Nao1ImVnAf85tMzv178X3GH8bjCl8rtaTwwVHl+4RSqVZF4EBcAcETN0WIjgo4IQshK0Ly1ICG2KgZzUyMCExRn1BiP3OTwBIlLbox1QQJ0WlCogKuxIlq1ITSP7FN8JS06FZ76jcJkxHMCY0yIPhGNSiCdw6ayTOlao9AqS7WfKKhNiCaEtsgJZA3MVq1WajAq4u8BR970LYFU9A+aoFCAMajaO7vKPv7+EZe57i2Xkzb90lWgNQ3yrEo4BtCAoolZdHbKzkgQbpDcVazA57gTNkQPEVkCvG99qkUZwAahGCMLbbwqNZy7z8LIVMFYWUmb4xRYYOZKkE3SamcCKIkiWtsCQ2cINbIwRJQrUnleosP4Eaxj42VZAda5JLUVUwjiOnimlVtZlj7X8MH8jo+MukY1mbT+JwpoeaY7NDJrpf39oWavZEMOge6VwzkdLsQpwdwQnIUdA7YwaGTJCS6YcuQQKWWU+8miwYKIKgSQ7O+MGwWWQazdqnvu8C9ZaRmg0eVX5Lt2BIgYOrSbvEoZZV7/1/h0bpW+jy94tHAaTdbgutlvY2PdrvzsCinJUXjA0Xgh6mHaE8zHOCrjeNqILTlfHX//T9eHq7L9st4OMy7+vp/u5zLq3mx58dP);lineShape=1;fillColor=#60a917;fontColor=#ffffff;strokeColor=#2D7600;" vertex="1" parent="1">
                    <mxGeometry x="197.8237735294997" y="655.968360652754" width="11.70649425653778" height="39.795902170646286" as="geometry"/>
                </mxCell>
                <mxCell id="5" value="" style="shape=stencil(lVjbUhsxDP2avGp8t/VM6X8wQyiZUsKE0MvfV27qTaSsD/AWliOvLkfy0W7izevj3ct2E9zr8bD/vv21uz8+buKXTQi758ftYXeUX5t4u4k3D/vD9tth//Z8f/r75a4j+68f+5/9hN8nu5aopW4V3J/TE+8o5H9Pvp4MnnbPFwZVDJoyaFTTHF8yNWfwoc7xuVCNCs9UHcA7cl4HEOALkiPWAfhCCbwhBkraoxCoxLlBSOR1yNFR8nOD7oB+Q2TyoAhMrSp8apRAETIF7VBu5AIImVxW+FIpgIjjoMDA10ypAFIQa3zDGZWSGlI0YREIODjKOgIWVoCIJaXFGCSqIASpUNE1YGE6qFli2whi4FAnMEXTCX5Qdz2rS1GXLBWK4A1SJdP8VZqZ5wZSpqgNyhLVukG1aS1uRLXObAlRBy0NXkHQUibbCx5yj6XZtEvS4AxiEIOqDaSfULdJXf8zZ5kwTBnUgaV/dOG8dCyoA8sMMwYBplXq4PXQ4/FgVmjWWS2UQcjCG1OFDG8FwduJNEbgOl54pImXYLMJPmSDd4AUgnfa/0ge470uAB4vgk86Xk8Rn2/y6aggvMx/NngPCFTZ8kGuUdADgm9X54N4m8zfaPAZ4T05I0MwP/0YbOf8O3DDCj5ZPAN+9vO1P5EayH/3X9c3UUH+O+tPpgj87/kPBl/eqa83eDRFO3/s+fkdftrz0V0m+FhMfiKaD9X6H0fCpv2r+RwGAafzwYhAKED6/LH8b8ifReSe8bC+jTgbvEP+8BgHF3iUz0/i+1pgLhh45TUe18O5vhkJ2Gjz2SgifL2aD2EwcN2AxzxeDNoQbOsS0znbwr3HkPJgO+NiHLvRLAijANMitGfaxlQthzGHZ7rAXKsFp0nqXHQMNcA0SSMYqSJSwaP9j8fqsygPN3p73cDZ7UkEGFpWRFiz5tK5+DPpbly6KP76dtCuXtGGdF5nk2h3vgoCVE627nYl9pFmTGP/WeqQ4IQX/aBjFvHPwKGrbihl1GU9RZTNhZDhKlFt8yTpNnC+T3YbihluQ12R6Qz1tRNkVJb0ZmR7GzJ7xiM2oi7AfUuY6uzU82DK52JjzlA1lmzXgjhYNdv/gr2VA9rm8vgK8DGVIHiz/WHVIuuqs+czmI99vdX+ywOkMottgoLXXfm3vsXre+ebJq7wQujn229p8JYtdlo32AI9P2YKjd13mn/zTQPyp2V7i3sHh0QnULUG6DvOpz9PfsBAfpy/hj7snp5OH1Mv/2+/nsqj05fXePsX);lineShape=1;fillColor=#60a917;fontColor=#ffffff;strokeColor=#2D7600;" vertex="1" parent="1">
                    <mxGeometry x="388.908634499295" y="585.25203647751" width="78.90067339270308" height="60.057852410520354" as="geometry"/>
                </mxCell>
                <mxCell id="6" value="" style="shape=stencil(lVfZctswDPwavWJIgOdzmv5HZuLUmrp2xnF6/H2hasSIkLWdvMk0lsSxC4KDPLwdn14PA7u32/Xy/fBrfL4dB/kyMI/n4+E63vRrkMdBHl4u18O36+X9/Dz/fn2aLKevH5ef0w6/Z1ytlGVCsfszr0SK9d/C19n+NJ5X9qVQjp09MyUPAI5S6gASyMd9QI6UcgcInkreB6RK3AOio5wAgKn2McRClfcBMVGqHSAlCuAEdSCEDpCFguwDguakPyFXqmEfIMnGUDI54BInkj5LtW1xHyD2hFpIgEusQRtAJQEu+US8AaA6eE+5bgCISxTF2qO6achiQw5ADZ7EBJAht91SomavagPUdsS+t28e7viTTY2ZpADaLVpv9p48EvOGQ+oh8ocpu56llQrgkG/5WwEqqICGzMG6lBCtNeZgY84IkChviuCRS8o67gGBCsiqnlBMGdLSP/ZisIBMFZ3gNzFUcoB4WgdTuOmiQEoQ4tIBvFO2O8SlujkhAa5GchttFtTwlgBXOUqAq45EbBGQFlp0qyoHlFLyxp6pgHg/bc9WCUUWIt4HNCm2Oyct/XJXCb1LWZMGUiTqQN/vksAaB71Ceuno1RvACSHboEOBMURtoD1PRYmN7n7tP2Z+4aUL3p8u2mjQJiQH5xcdeAxTZZmA7tsne4vgCSxvtOzx/tUq0y0L94XMFKOxR3NCiYtOPuwdsteKemsP/NF+HoqxR5eU6pbt/ogR2hdMvB7OdtPYZOuF8qN90EwtAgm3arRNBEsG9g741Mz/f3v9+HhgvIyn0/w+Wf9vHyS6ND9m5PEv);lineShape=1;fillColor=#60a917;fontColor=#ffffff;strokeColor=#2D7600;" vertex="1" parent="1">
                    <mxGeometry x="395.16891520149056" y="657.5851624672853" width="15.252218638304385" height="41.341448987699096" as="geometry"/>
                </mxCell>
                <mxCell id="7" value="" style="shape=stencil(lVbLctswDPwaXTEgwOc5Tf8jM3FqT10747ht8veFqlEtQtZ2cqPpBQUudkEM+vC2f3rdDcJv18v5++734fm6H/TLIHI47XeXw9VWgz4O+vByvuy+Xc4/T8/T79enETmufpx/jSe8T3GtUY5jlPDHtKNUy9+NrxP+eDgt8DVS0w4vTK1uB+RKpQ/QSlm3A5JS4i4gRYogJS1UQhdQLKWwHSBCsb9zzSQgIDBl6QJapQQCjNTc4xsFQFIlKR6fEamUmse3tI2PVHmFB+cr8er8As4Pc0UXeGnbeKZUPJ8ZnM/EfcFaoQrP5+rxgRE+u/tmUnhfz2eaVb7BpwaPV5BPWt03UQB6y1R1hUcuplg9PgI9NKri+WGQvxnGWdICMihYCMTJVwyZ3r7gUzITZRjA6gMa5KisPJlAjcvM+AKPNGqM9xoKzJBU9Z16/AAQqRCvEkKU8tz4FwRVIAqmkDw+YBM70xRSUDGmuBJdgqb/HD4Ihd719riJAEILSV8Be9wauEEUqr0NkkCfpUK5r4Hmeee+6HTuU/9U1Oay31e12aq/dMDvvbnKyZQEFLla4+9txrAzNp4f0hteI8CH2bQ3PIMiN5smxOOByawR8up81BlNY9HnDzQ0PlwrftAkUb0rw0zwfbwNDsHhK+LTBoFeDwInm0WTug2Mggj95ID5f7wtbtPsy+F4nIbh5f9++rWtaXLWxz8=);lineShape=1;fillColor=#60a917;fontColor=#ffffff;strokeColor=#2D7600;" vertex="1" parent="1">
                    <mxGeometry x="403.2441873969749" y="648.9927303255656" width="23.25317630038853" height="52.507273404877196" as="geometry"/>
                </mxCell>
                <mxCell id="8" value="" style="shape=stencil(fZbdcgIhDIWfZm8zQAg/17Z9j85U606tdqz9e/tmZ0c0uJ47xP0I5JwEBl59bp8/1kNwn6fj4W39M76ctgM/DCGM++36OJ50NPDjwKvN4bh+PR6+9i/z74/n6ctp9H74nlb4nbmSKZeJCu5vngmZ6jzzNAO7cX8FVKEsBuBKrgKg9oAE8gkCbLeUhEoEQKSUDZDLeWYRKIl8MEDRmHwfyBrBG6Amyu4+kDxxMoB3jhwgYu7TVAsVkFcWCs4CTBEoF4RctKeOxHIf8IXYpikHikAIf+MNUW94AGSSaoAoFIE3AlOyeWU+p2E5S9yfQZcQILVuQOwZdJNoS9Ls3wA5u2XZTIHECqeJ9kDpSaauRiNVcAY1QhdBzeLBli5WazpkSsBLV25uRaqWRyFawTQzRRIQYirJzq5atkBqLfouwqUxLBepthWb10vrWZY6UOAeyKCCtDV625mm9gmUC4Wc3VLJMMIE1BsA2FW9JraVlQB7n3c9oMKhCLEvIM1zBPZ25/umNQ1tVEC2G+fFCC8g398O2hNQuQlVu752DBfA+q0ptnqO5JFmeuIuo9DY7KjY71UxdJV4EntifPWorW++R/dC4t7V3DlIB5cHx2bc7eb3yvX//QNFp+bHDT/+Aw==);lineShape=1;fillColor=#60a917;fontColor=#ffffff;strokeColor=#2D7600;" vertex="1" parent="1">
                    <mxGeometry x="210.8679608424759" y="657.8753124585194" width="4.672539772115215" height="4.665236216357243" as="geometry"/>
                </mxCell>
                <mxCell id="9" value="" style="shape=stencil(lVfLjtswDPwaXwlK1PO83f7HApttjKbJIpu+/r50DSURFU/Rm+PM2BySQ8qTPH3sX953k+ePy/n0dfdzfr3sJ/k0eT8f97vzfNGrSZ4neXo7nXdfzqfvx9f19/vLglyuvp1+LE/4tfJqpVgWluff6x2hJH9vfF7xh/l4hy+ZUujwLpKP24QcKfUv8JkEvCEFYu4j0hj9NiEmctIRQqYatgkhUu1DigWKlkzOdYRUKPM2QSWm3BFyJQEanD7Pd4RSKRRA8OR7Qi3kMyA4kmQJFRBq+/eKx2Uo5IrFF6BAq1b7RmJulX9cNvI8vAAI8BT8IMCBDBHHIUGgjZi8GyoA8aava6YA4mcKJp7UmmQj/sgWzwl0NXHv5BopgngCVW/xHha4yoAHk6K0at7hA4jfMcVBQAUNpBbIQ0ZhR3gS09MZlnghGA2FGNVMQxqaKIMkqegw2ExAljSrzuJzRVUryeIrwAcqccCDFHk7exWfkODBBZUcwPPg+kIBxP/IlRnsAnW96Wrtc5D/h3jgssE1unERXtdv6QXkDAvso12XSdcbmhPSCnpdl1hCkGbD60JO0PnRtU1xXfmZCmiiJHaZqaoIZpGeQsxwd0IBzIqik8EQmlO3zkVizkXkgIJS2mxreKaEbFytz5gExF+d9YE2Otr2Qo4tHj0/UM4WDwqgXW/yo/GDfC4utPEn9Hydc2LzD/K5TB02+IwmOw+DwsO5exubt4M1I8H/eRD/N14vbqf+t/lwWD8a7v+3Xwl6a/3CkOc/);lineShape=1;fillColor=#60a917;fontColor=#ffffff;strokeColor=#2D7600;" vertex="1" parent="1">
                    <mxGeometry x="201.97469771000146" y="651.5724791906621" width="20.443234810388276" height="53.438752519471336" as="geometry"/>
                </mxCell>
                <mxCell id="10" value="" style="shape=stencil(lVnZchs5DPwavaJIgheec/xHquKsVevYKcfZ4+8XXBVHYo+mXXmTZWCEowE0MCf98PPxy4+HUwo/315f/nz4+/z17fGkH08pnZ8fH17Pb/7ppJ9O+uHby+vDH68vv56/Xv7+8WVIjk/fX/4aT/jnoleqxD60Uvj38k2qEvL/33y+KDydn28VklRQSPMRdxWySa6LQjSplSgUqWFV6POb+wpJiqFCbscK2qUkVIiFKGTRggpGTEomtjqdglQS1lREV6eTSjKiEKQ0TFwheYieaV0U1B9BTIqe1/UXPAydRMmzBPI2sXIfStLXGOUsjbis0uMqb9LJ89OM+JQvbr8yeV0DVNx+4m8SW/2tbj/DqdQVptXtJzBtGM/mICGFE6O0tTS7gy4RhSZxjVAvszLue6xiqwvdgU4wpEnSWmmmFKU5SllBYd6PIgFRlJRRgUW1BmmKCkrS7Flqa2lapoXTugTwIdKwetQV8uCZIQr+PKjlHkWJ01Yw0y1LIli1JromrnoeuIKt1VmaBJJpVwirD7lJJpkeUV/Dqo1iyQIWnLcoZpLnoUKbNynEpGaIJW+aSlpY86a+KjRJDKy78ZwnVO5Xg81i2WJEh7NXT08oz1pYmeZe7amkpfqk3flrrMW3OVY3YEtgk7whJvwBxF9taH+TxvpXm2ToKs/qTCvaX2dZHMl3mCG0BsbzYaaJkUahWx+5ymcefzWQjzz+0BsL7RKOB4hn5vnqM9w39jB/+27mS+b29ALyncXfad8qXylLG/IZ5CnF6ZOh3PQHMvKHvwnkGbce8UQ8G69f6CfbbDvCA3CWPrv8Id6wfhlFG3gOIF9Yfut07ypP+8mdemQjRitOvUonzOgniDfaP9uE11WezYvRD1GebXO/K+8MHfC88bXD+bLGP9D+4PMrFZQn9eLzscHEplxusJ61XjJnZhHzZbRfOW+D5zvHZquoJcm7/TszUuOAhDWu0hIww5LJlc7gGLYc3VA5ZTYZTtXaJkE9cqLBGHaiQ3DkYVLoQ0obV99tu8aR56QdFw/O8n0tgF3IGS2rZV88YH/1uDFsePHA8L5JzdH2FA1/gs7LKBVsqnRlHPwQ4prmGn90dgAw9U5bWAy7ZYhz0rJr8W1enI7OAiAfKWcPOGJrmYeCA3msHqMOBykwEpSeESLiLvOA7lteohxn18KUV78nDDivb/3KHChIKsbUJxaNg+EKCYchozmjq8M1LcwzwdG9Dnjm6NuscDIOBveKMpGOlRbze1dNHG1ZOlOouFC7SczpskNe3IbLfYWMhw3PDF1HG9aaJ47Nc1cAPu4KrDjLjqC6QmOMpEsEhcxX5I6nk7HzsotUny5uCmWC5chp66jAOlhpOEneWVvKdii5YRm0pzact+8sOuPYk1CBdY1S8XQyFNg0dF6UdyaxKP32q433FfzD9U3Kt/PT0+VFzO3/8c2Lf3V5a6Of/gM=);lineShape=1;fillColor=#60a917;fontColor=#ffffff;strokeColor=#2D7600;" vertex="1" parent="1">
                    <mxGeometry x="578.1157864590593" y="574.2156345677192" width="119.29328390930232" height="80.52788332021214" as="geometry"/>
                </mxCell>
                <mxCell id="11" value="" style="shape=stencil(lVjLbhsxDPwaXwmRlETpnLb/ESBOYzSNgyR9/X3pGlpb3OwUuTmbmZXEx3C0O715fbh93u8kvb69HL/tfx3u3h52+mkncnh62L8c3vzXTj/v9Ob++LL/+nL88XR3/vv59oQ8/fp+/Hl6w+8zr3dqfGJJ+nN+wtTzvwdfzvjHw9M1XqjZhO+kaRvfKlmd31+JCyAwpTQRRIj7NsEq9TYTKqkCApPMKyiTtW1CLaTzCmrEYIXSqcyHzkIFRKkoVZkJRgYO7f+u8wr+iiSAIJTyTGjEINFaR0wGoSoxiJLKKISFYNRBpqWRzQQTmDgpMdOGa0mUms6EThmtICRzdTd/AvIgiUogVKq8TeBONRA6JjQqfW44zzQirA7dG1VwaBbKcy25KAjINPuhSyQY6ukRwyt8Bwt4nnWFr6D0yDjiK8gaU1sdGEmMn7fFiBbQbClKWDcYnzQaa8FX2DlMzBEvYD9CNby/DL15XyzIcsQLUlRKNeKTbeO9CVPEI2lhHuG+IhRU0hol3iOUUEVkkhIJDXVZXtWESzKQeCdwCGobY2WrLfuqaxKOkqzaBklLX6Wtj8Z7fw7GNuO0VPpGHeVVX6KguhBJxKMQpZVOtOE2tvqMIx5JaYoz03MsEG9h/5Uy7PuP4XP0Uu7GFOzH4v5bow7wLVZccyUGOuElyvMB3L0hn+NNkOfpZw13jZHOR7YynmwNZJsb2e1eQR4hD6N1ZVuQMZLFQiwEgRZY8xhGi/UyKNc5RSdVBOpprnGA+JMGzlA4Zjrz0LP3CRZti/tDNDLdLIaZr4kayENt0ba4DVBwaNModz4XUWl4qYVMs6+AbEuOBrVRRncjHvb1cpdK4P2OtzmoiyBs3b1C5SW8H41uNkH56j4Ec8DDMV5ineJx4OqmcT/ozuJqqz3g0bXrNFDjfhS9fzUAFze/hQ+3NC9p0DSXcXqpB2SjrsbphVBAk3348v5fvP+4fCm4Pzw+nj80XP8/flnwR+evEvr5Lw==);lineShape=1;fillColor=#60a917;fontColor=#ffffff;strokeColor=#2D7600;" vertex="1" parent="1">
                    <mxGeometry x="581.9442325307546" y="660.559908822006" width="32.4959746653135" height="96.17717228120887" as="geometry"/>
                </mxCell>
                <mxCell id="12" value="" style="shape=stencil(lVjZbttADPwavxLc5V58TtP/CBCnMZrGgeNef1+qxspaypogb7Y0Iy3voXZy9/788LbfRX4/n47f978Pj+fnnXzZxXh4fd6fDmf7tZP7ndw9HU/7b6fjz9fHy/+3hwk5/fpx/DU94c+Fp0rKEyvy38uVQEn/X/h6wb8cXpf4TKIDvlIN2/im1NzzhZIAQiaNI6GSIEKgWAeCmdDKNqEW4jASCkVgQ2UKZSAIU87bhJKIRydJogYIuRHLSND+ztuESHEkJIE2pEo8xiEVahEQInEaCJn7lZsEqZTHN9ghFbxBhMro1pwpozeY18fAmd9C3SZYburopcJUECH32zNBKIDARaHq3mA2oDdECqOXih0SGB3txHksOKYE3BqUxBEsDqCkgyXfGIeaqQKjQ/Feqo1yA4Tsj2RFm4DRIVEavdRS99ttguVSGwml+22LwO5IVnHIrZHyWNMaeiu8TQi+s1rvzKCRGaGNnU8tMiCXjJCKJ1TkJe4HmAlKEbQZc0nw+AJsrj7O03gBcc6U1njwfFnFwMYLyiPS5vEZOIipVo9niPf+aT1xN/Au6dSmJ/C/1T57PGpHgarLIKsCkHLSo7/ARzSn/FwzPKNR64fOhAeNonmxMJ0H1Rj320uDcVGKeI/GD4pyFQI0yo3g+vWUE9gG3ycUOkl7SJdJDYOgxeMbeH7xQQ7MsAqsNa+qEg3+SGlVlShLQ2/MC3wABvAqqxsVoI14laXmMtB3P49Prktkimhc9nAuJg2aA7HX7DzKWu9jG1XvlJ3NSnQe8Yq8CZyt2evrZikO/F9IxvOYnED5Zj3T4c2fAL+aYiaIBM1Va7vjC4rCJce0QVqJOigmUpc/MyFhuVK8NigRLghBfRJlhUVgWVSdfK9Q71vY8niknPomtiXfXR7l0FXbbULuw33eWRpsLCl4JZsy1Ae2A6XxSLb2IBtspQmjQpBGESmc1lNzJkhfSrZ2xzB2x6nho2VT+7Y7E0xuA7fW5AfO1GGBDVW9l6YNABSc9Qc3lq1CKtrhW1+arl8V0GKnsc/gjmfoVJ23uCse+dTwrgPMPfw2PnmDGW7jNgBcojIe+dmHDE9kU0G1fQZfvaZgOHEmSRO8vej52h93xaPdaVI0Ho8UwqRovP8VLkKrGR4+MuBzn8k+xNuP6ze5p8PLy+WT3vK+/4Znly7f/+T+Hw==);lineShape=1;fillColor=#60a917;fontColor=#ffffff;strokeColor=#2D7600;" vertex="1" parent="1">
                    <mxGeometry x="584.704171793988" y="651.0870276633796" width="39.21751371933419" height="117.08108153685339" as="geometry"/>
                </mxCell>
                <mxCell id="23" value="" style="shape=stencil(nZ3b0gO3jYSfxreq4Zm8zm7ew1VxYleytst29vD2S6xLv6Ru6WO8dz4M/tHMkCDQaDS+KX/69ftvf/7um3z9+tsvP/39u//64S+/ff9N+bdvcv7hx++/++WH3/Y/fVP+/Zvyp7/+9Mt3f/vlp3/++Jff//3nb+PK+Kf/+Ok/4y/89+92qd3aFVb5+p+v/9LL//2XP/9u8I8ffnw2qLeRXw3GLXU0SOvVYN5KBYNym+PVYN0y3aHcRlKDOdGg1heDfN3GQIP8+pNyujX+Sen1LeXMD51va74afP2JTwYzqcGiZ8i39vodcr2thAalvBq026KlkW+XGIzbRXdI+uHyvKULDYo8w14afIfr9UuX61bpDtetv37pkm69oUF5fYaS8S2t2+qv139tkA/X99cNWtp99X64Psvf7/gA8/5rv64ftwl/f+oyKvsvwO+funXqdbtgcw59PzXdEvz+cX+6r+sz+qNxK3L93miwhIauoH09PW+/jdf3Wettwnrot/q6fup2wPj3r1dHUfutwd9vtyG/f9w30YfrZYvV/QXx71/yvRZ+Xzs/6teO+HB9ef377botcIz1dr3ul5ZuC3Z8uXX5+/l+/ny4vrz+/lbunvjD9fp76t3rvb0+qwNqez3g9eX1+7a9HvB6cdJtsEe8DXk/ez3QwXRfjU/X035Jesq0he8n3Xf3/fp+3XfQh+uv1+/VE67Pr9X1dP2A573uocbX9fuLwPvcf//1e/W9oujcvqXX99PrrdKBdKuv+7fv8wL2b74f0V/X91uG75Xv4eHX9dtDwu8p97/2dH3H/X69+ue+1xucR1XPr3097cem/rYvjDmarYeF+2X786nXD7h+qD/f1y88H8V/juuW8XwXf76vrxhvXEOvp/W/Q+1Lr18U6V639vrAYy9xMkj39/1kUMgD5buDejKonA/IGb8NMAnaLr+pwaA71PsaeDKgUyzyMvls+f4j3xt03feD46A0bGHke6j23mDqTt4G6Lm+YvMngwoG2zemqgYNHjqc+1ADPCyTRpfj67x9b5DvwduTAW2HiCemGdAz1FvLZgAbOiK09ocMuiajp5/Ub9Pe0qAzZNw/07MBOL3ICi77DrBa89R0d3zls+8N1pvljXHR0oMkVisFjtc9rnzeovAM5Z0jI6+xDVZSA8r9Sn5zhws+XMmKtWzvTdlEKRqu7eNqwnfYBtMM6Lzd6XDxAIANNAIbmFHvBLqIQb/7kU8G8pY653Q75ZakZQd5jZ6h33PupygS19KwsOrCI6tY3LDj7EQPPe9p91OiQFt0GzTLROhgLwY97NSIoIqy3uReiTbQ0mN3J4PklwKbsGwzUza7g6nXn7TTZUoft8EQ/GFgPFYNwqr8WreBIhz1HqN9MugGcdA5Xc0vBeZCz5DvS+0JBCKwchvIa41PyQYCA+3VRfuhmufbO6TBwb7ficQapfOHK/e85Qm5IyewDeTI2q6NnPE2aII9lntw/clAkrfC4c82EDRrn0mUXW2DKR/u8KWL4Y8Xxq3VEsQ46ukOVoAIDJPvIJBKJF30Hap+hx1BEbReLR2IGI0NJAvdUSBl6bWp9444kxaf4X4RyfIdBDiLWBm89zZYTQ0IOdh+LstDJ4RWarfvcGGQuA2mV47IYNxjlycDRCeGOrKdRlGGsg0Eb9sGFMLt8ybJMwwMdLeBIBTbgGKNONGkgtcZwlka/mwD/HBLQ+ltcBEoc2m2uxPmAT9pn/uXGTTwGo9A4cmgwvnQsh6726AQEFUUid0GhORsgzHNABbfDqeaG8D50Nrdkz4/A92hq5tJDdHYbbDsoQmbiaDTPxx96Wk7rmFUGXFwUgPKpwOgtjtQzNetqLiXN51xPdkzdPxJ20C36EAUPdILWd4T0Z+e9djdBpOeIWvcul0lRZX+k7b3vqgSlnQtRRmfoNmksN0+UOgUDejfDKiYtA26HFmMOsSXFmYB1/23gQYnBYOTbaDhz1dJ7ZOBfLjA2GGL7uUtoXRmDknsB7lDRzfzKPE8RWR0ZG0DDX8G5kB7TwvkdQgSt4HGGut+AHx0M5KhcKC7HZlUbnfsTfFSFOamGtCH2751SMKREbvfBnqHgjB267qBdkpD6cA2yJIOMDazjyw5pwMaoS/dtIC4M0XKHwKUkCxrf3v6DtVK9Bfirftgb8Z5IA5Js1w0slMq6meNBCLJobeUrazfMLXc8ZLA2Du4xqXxlRc+IScYnFz3OuaXweLkdSlMEVEgx63iZuK9Udw6NS2Lb8/BujDP9nLEFH9qeXbvwQte684f5ASKgIhTmiw438KC/eO7fkGPCSvMkZZZiZxCh0j8BA2tGJxEavnqBDqfQI/F/AQBk+fbBkJj6hPh01p1efd1h84/GWjhiIkNsYOlwpF4tVYNdKMkQt/By5xnfEnqD0cESzLFsdMB/kn6DJ0Xn1c4mP8USOLr8h4TD/ZtoM+wMPHbBnI+zAsJrvs0kHN6JkYdjAQy88lA6nGzIMunGo1lVoxb4whMaoDA4KUHyuQUfxtI8jo7ppbbIMtbGoysG9dzzpNBG2qAni9pljUXgzlJQbV1sV/KukW3wcEJSMVvGyBhr2qguxIDtE0Tjm2AYH+7H1BfBsx1qIY6bAME+4dWLdcB3JyKhq7CP2lpJLANiNfVLKVZBVP8bSBeYxssuoNR8VZF6u2OjtJUA3yGrClNGFAYasyc/QwHjExCh/3hEJAq6ipXYn5ssWdg7x0hoXiNhVSebSBZ1vZLtB8C5xOvceAEV63SzMbJa1P4dHtvZAU3LdXGgULfoWn1eDKPsjVNLfehSKHDNtAji+Gi1jXW2AYU3bcvlPspEjigoYL+7FiD3Mw2kA+3oxk0GPrhdrxE0f020GfoWGNvw4hnTDgNRFfIQvXuqf5FmGIbUHCyDST23nFrpx03FRPYBkQSbs6qPLiZadF9wuQ1WNPyli4Gc5ZRqpi60Czb3RlKZwN5hj45xbcEfBtQZOywXR+InPRLCU99MGZ8KdSyEz86shy736klkba2gVRpekN3H/CpPHRFlldPWjjq3IIQmLHRkRJjxhKs9yOMrSzshC14+++Jb+2Jf1J+w/unbDd+kkAtixtxrOIXkO2hSmOtDuQqe1LfGr6QX6sEWFE/4ztcZkBc6TCQn9Tu+e+n1eqkrUPxS7CZCIh4i0ota4dch+qA3uEryflXnyEdn2GpAUXGb77DhYfiNsgGbhLP2EuE0XfFP0m4PwFG8uITXmVwE3hPywlUOZ/u2XDvzns6G2bcuAhpnb6VS+bd6EiBy5HBV8bzZEAFizgN5MMVzEV70/pDgP1kYLyZnfQT12EbyAn0IOy9NxjaNV6ZFvYAS58MCJXuU+txAVHRQy/tO6sXBro7OkpWpaFnGJeSheqFIdyDrP1kQN8h+ONGk6T+hyDNLzOg5ldrZK9MGx7lzUNTRDaMPFcv9K3bwL80ObJh9O1YGvTQTQ+UbUDRzM54iq1Wqh4Po2/HBqJnsEJq5U6XbSDBSS3IkBpTmWpB6qW+MqOFHRqdI1UVN1P5tS5t76kcGUf2XNSA6g/DMpQDV3osWxodWY/z0jC0Mjd0GwgQso9dgrHDwCKBCZ4vigevd2gXntOBYohBwsRvvyVhAUddlLzG0rSsMWy3DbQruWA9bkw9FB8g2Mf9ICFcwzDUd1w7LL5hd2AS4/YaAoS0jkD56Basd3bGTd3MTjhQ7MCYzAHv0B1Me6UxVrmPLA3WJ+tBZG2ADvCFDJJ672DS0He4rGS+OMAyslBbnGVZU23QhyiUnqriEaRDCnSHeu8AXzhIHIJrXAxTdEUStwGG0k0rTZ2DE4+MI42iqLKqb33w7z5F985EIIwsEo6uBoS3PnCSJ6gFl0a211r5oZMuvl5PrEdpJe5MiO0Wt0ZGwXcQNxMZBRskg+2IXB0JuCGJ5DX6pd6787EbSKL14SMKd+kWjYyCUQdZ3oNVp5q31iemoC/Npx8ZxScDiTUO3c3OlR4FyaQBY19qgDD21JRmVMTIHvSmp/oD1uO8j70xjD2ty7zzTxrvOCdsINXjHa7QCfQ4lZ8MkGI4rBefl3frCnlF6MvFL63HXRi3tq4gwmT+UnBDhU2RuTTVNaqcrO0TNUV5aCY8tWYEj8qLz5r3gwbDlVdJmmbjwlFVVxk0GC43i6ucg2vsVV3lZNm2NwXtiRQSZ9DOxSXColjlYlyjFXUzK2F3QrNey8WhQzNq2ypcPS6ax50IHkXf0qpIMQxlK6EutJOBdNWuztSFounxYmb/m+/AEPBeGhLdbwN8S03Tsm2AO65rcLJYT6CZhM/ipMkPlG2Ae9ryh21ADab9Us+3JpfXTPZqGxD9IqplVQ0wXsrKddgGlLFHjdLuQG2H20BaJ7cBdk1VIzxNLhG2NwaHLEsYg2FAP8nO6TURCNkGSgCc2MLajYkQb4lCaQNzFrfWB+/AnoEqTSMZaWsyMJiMnjcYu8+KJK5xQtaX7WnKdkdRuup2M/QdRrU9zZ4v4uBLDRA5aRqsL5YSHMbB2gaUPwyjVK2K2e7oWh1YBZn920B6LVfG9DhQODE4VDhMu2hy2X/YjpsDUYfgj7/6pR2R4TNMxWZmZWBwaegwMzqyAMqNUU7kOce954Wx93SZt4UPvQ3ktQ4+44IDb2kZcU4ivZA7tNMdNAGvrHWbLcWveOxOl6pjuGi6wlPGU3RmzVBGwkNxGwh/aXAet1MkVZBkrZZpRcjOB3skYQJIDaxlbQOVU+qYlk3jrPfDl64ms1kQOdkGrvBECce0uPUBs30yaIboUkvGNGnLdtii3VDpgXlc0JCHGlBJZBtodaBjy16kqvKTGuai09inBzrSnEpBj7yLfpIJELR8uoOgDgd2URxQxi6iI2sua/9kEbZt4M2ZtDT2Iauy0SyBs5xNwSIKy4LEWlGofBmfrxYMdJe1M9SMqeXKCtuFlBZpq1pKUw/iqsXU1tm3Lms2KJzSPBowvgwGnqLbQNvSOzqBiCG9pZveUlOaZGHZkmVxa6kYzaymmWJhgvg2kP1QMgJSOzQX7124pXuZDvyh238bSB5XGKBdhujmhefDznikvJYZlV7mWw86WMtC6dwwj1tTnUCuvOOmpmWZEd1lsXfOvJamLo2csKdpWQ0lX3wHY/anhQnHshkQidtKwmCoAZ1Aa+l3SJxPLyN4JM52l82ZSNwpv6aG0tsAjyxTxEzMu1/WS/PQgf604wT3TtwEtZr24idmbq6iezod3Ew28S/WVFvWRZi4a+oB7T8ZYBhqmmoLUYoIjAWaQY5XpBuSujJjy7olJu7nKKRJsQLJs8O8JHvVoC9KkZapUSaQOBCjDNlvu57hPamEcBLQLbydmAP0YRUvrJt003KYTISvut4O1xvJlkPhbvqr/L0Cq9fridPe7IQ6dIcO/15YbDAJnsFKSNU61bj6UbSodCiO2xyqwVXfS6HbgWBytQlLLFwTMjWCd7AkqjOtWLamac3gIGNgFO2O5duajRSIJYlHivK4nvxzMaEr5mOUYf0NeKoWn4CEDdshoiuxOwalOxUQ/1CQdVOSdghmXD/FGMEZ/35eCiry6Ihs7bIJOxxz1/fPiUf+Umi5X88dAfF5plxP/iQmLNn1sP6zFRYvTM3249nzUit7TPgp+v7p/Vxa2GFRtbRMrxvzuBCQFVCNZxEagDV4yN7QjiamFqWu3Isd8BGymUwd/zGx5b1B0/6kxFs4mZhxYuntHflr0MqHxjbQ9GTyWKZqKdZCHD4ZkpMvHr9YtFpxWKjJDuJQcKbvYDh8ZtgkBm2KQmfltVQUjcoVg6Fk6jS5YjSaTCAkNwwvU1H++WPk3ScD8dcng6yMrdwwI0hZO29yZReTFe/KjJ2mrB0fj7l9Hw0cmKEdl/WUyhU7AlM2hU7WjknG3c71NHhWHTdXs2NpuLQqr6XsBvTQRdlO8dA8qbba0qDT8/0WpddaTIu1nrxGse9wcGQ6bZeRnPgObnDYooY7EtEhZc1xMreupWxSwyx3lqzsmisPMX6344jh/nZPo/f+fxioI+PW5jc7LiOcmwzL2WfcYfFJnTbCOV7eqr/PcFQyrupjUNonA4mvEvMWkg04SkzbTEYyToWPXQ+weDRDhHAW82V6hm6kGURzk7FyOlYHk7f38UewmQaF19Gy0gYnMZcmScxtz9a0dmFLZrZpAxciy++SKgLhcvUkD6+3eYUXcmazgSIXT2czSacLM4DAhDUJRpDAB0rgnizGQMzYlFiKgqyHKcPVBu9gn00xzYeCAV4ZNqYaywDFSkocJdRLQ1Q+kWu2pk1WaS0mEnOaVmN/H0E+E1rrmDQHKCgEIhZcXZp7de6jcs0nHpuRbcYdtywZD587i1vVwhP7Z+/dOcrQKVePW0x8PiS3LF56ao/TJIii1xMjs2fti2ZQ3IsSzHDzosfh+qFZ7MCac5/GAkT9onFpMxerLI+safhAAcooanW9njvfVboa91cU5ex5WThCJ55iujuTBn0DaTnTEj8uyE/jzPD4ijmMco+Qw1xGq+ZqvBVhEg9zWdnmLXEEtKqRHHiYy7IQJSVmp3T7SSzSEvwXQYpZBHgZMzwCdaazSBidWHF3rTcTnahpYBsIpy01POm3geYOPEB+GyjWyiyhdF02rGjw6ltGi5gYji4b/psm8yiWFQUWcwVtFGlmMahtoMylhMn0Wlo3zCyDt6yr7DBKKDqL/hA6+4Z91bD7O0g8Elbzub+GATMTawmxR318JD300B0UBTx6aOtAKQl7XB6NQl8G+cTkkwpQYTGo1bVdvJyZS1ID5Xh/GZe8HOhaTUVXYmgyGygrlEO8VW2yKKv1r6oScoVZ0qsqIayyhsoq+tA18YdzwnBCpH9lXRo1MzvXRRt5hM2ymWiVhZRCT10emoedLhP7qIP3gwWf9eAELt2ilQV8pitg8XCWbSCNbo1ZoU6bixSOaG1TM4DoOOc7KETG5Y0dI2oOz9Mg51DQqPHczzmUCtt4T0+DjdohLjbP1xZGAtPYJf1CelJMJXl9S/3QSufj5zPC6tMI9L1wo1s1+ebGb6maFHjn5V3VL/XBz1BsQtNE1tQ2ULHxhRHZLErDHOxbgxdqBuRbp+ktjIwgyfTZQ1wP2QaSQAwuKE6DzUbjtkyTmxoMbE2bPbRTZSqVPRpJvwwmuvtpo3kf7azvDUySfV7sWy+bbpSw4XAs07Ip3LG7bNwFD74aNjluOx5kDU8NTiZPtBzTaLSLIRObPL248XMbiNeIYIJbrVUoo7Boo3d/c41zWIditPpwy7vKWHRWF3wrJ3Jo2zfpAbyD8bfX4UsX3XGRRpGBFacPUhzD2pQXz7GK4RbC6WeSfvjqrAYI2LnCCU+v6NZFsxZrh09b3uuk3aHwz8VVs26aWYtnL3ZrXFsHmUerI63F0nz1zWvCSdLF1ve6A22fDC57r4hFW61zHeQ2Tep+LR7MYM2oi+HQZgPr12Fwz7QJZNzz3sYbAxxvZGM5F/MQYh6SawTRQ9c3migHGS8VIBknGS+VmmFpjZbfCMHgBLJko+MGT/pJmmY9uro+GeiZxUdQ8xF+jec8W+1kcQt7M9GIOHepmmaDGVbGcnLL72Ra+CfpBmIR91Y0StzRCYphWngfXfCs8CY88nnQVCwKlU9unQ6VOjOgsLJZ1SuiRN5xKpHYMNhopmMxmePVLLecrNTdDIabhxF+Tdl8k9XGt4Ec1CHcQj+pWQceCy5sA2FgzYvL7zY6LpTmeRKcNjlxc3aoZ0pBcfLYta6hwxis9doVkRo8ejq0xcWAK0HNoPXBrUVtmMAtU0kfYuRPBuhmhjWPnUfHLTWgmK/NNwo+BwldBQVYZaJNq31zR4/LCw5OqGPWnIEz6CqtRzYk0ekZ3s2aO2gfqyz2OAk+q9o4l5r6pX6pMwen27jg3ngo2mXC2+00L0+BPqZxdUuzesHzwWec9XxSG1elbh6FEjJIpnOEQ9GM7d150k8v9pMuJvtUGy6xcMd1mw7fGMLqpicSm5a+Q1fyQjvomQ/7SZNV36eN4Jg8jGtq8hqDGYjjtJQD0zjhGLbjGrNmhqmYPpqfP8EOPr4CYbispaYYyXqYuGQT+RBrMfindVxLo+rB3ljWLuaz/rHJJj53pDHQZ3NtG5/Tw3W/KoIIw+ddVFZRGHoohqIzI7TS5t0ycheGkR0ac4KHcRYfueMnlFmlyHgU+zAWdGNa9nCa7wE0NlStsgywP0NleYGHsP2XQT/JbeqMs4Yh3LCYr3K5bJhcfwwJZMkPnenEE4xjwIBplyGf0viONTNS3hSFC10AntOmZIfEwPc77gJWXWwmbMxpY9BY50cmXks27bSmk5RxNQOUlLaZHZVJhttAJyNmLJd1KwRVzh/6MDpF5khgaNwaHBIKf7o1E3C3Qu/20AU1TGJijW8gegbTPq5cOepWpqncQRSMbfMah1mkck5XHszQi2kqDlbCsXa6OnB5d2vCrVw5ejOxdfKHy8pwrQuJ3pEtLDXAqktWjKwxsbIbBNwSD7LySdKHPZ0sDD0MJPY7MJcnDCzAQlGibKEDN3THdxCDxiOasimxsjx5LA2bl4dZVlbP13hQSbc++TYxbu0m/RJ1G04ti2WKh6EGCoSwamMv+tCdp0Z1qwZHDs/5dLEUHyfB2ZCPIDDx0pAKRy8Yhj4IUU8GeOxmg1pYMf3NOHmWUHA30w+D0m2LnqeoKYLVeTCDCdx2ZhbEQphqQE3pPZks9sRA982ctgMQctmXXjy+wjCycZ3mtMk5vaNACrCitpvUgErmAQ7ZFDUsWCw9FAfrQjabnDu4T6RN02Q7jAYyUaEgusCHazYu+EGl+WSgMoOHST8OxQ8s+zcTVnzk8J8MtAmNRz+0oRjZYNJJszbSeXH9wRK/yY3OzTrxD9y21o0XxkL0zcZnP5rTPhlIi8WsXIT0Al5DLZgoEVpd9DQUzdhz+Fp9KNpC7x14lRS0D/VpHz6UeNZc1aRpMW84QkIv+9NPKrpa16FaVownUBETaNYWuxoXUpMNdjuMLEsa6C4WhIpswR6a+BrVuT/cg1edeVbRzTwgtKcPR6llNQnFVRA5qd2+Q8FzujpPMuOXjnS7qQFhM9UXX8YdV02TZyWsDtSs0cxKGDpUG4S7uJDqqgeH4UPVtCAXj9Up1ogyFyavZWk6MLkVsliV5jDeqFij4uTe/mLaB5PbRLaBzE6JWSf8HZQ3UzF/8O8wWWFwGzQ7FCkBj6Uh53RGMGcvvmQH+8FAv/TFmhs2wm8sjIz3BpIDZbDUdTVMYAyMyKqNzx5HMVslePCsiFoshKuIVVZL8QfrwVab2TEysimqDS+NEfbklywSGBxVVlPz6UyIde/dWaS8NkuPO2Yo1SQ6O0cC1fusWCe1dvtJPNw64FjJp1lRoHbdQG0hC7h6vxuXzKM25uVmvoMiiQ3x1mos98bKQdtA0uMoc9LyXjYP6eJnWPoMdTGp12a3x7SiP6SmUxl6DBaw1RTptcbIJ/lJlUexZxvRlJlR7mB/4ly02B0uzrKMvh0qUGwgB3s5DIY2qmdh7fVILWXoTWPxe5/DU0/psd6hIBMhCCPy0PlkIN8hFMTpoYcWLMrF2e7UhonMU6OazYTNhwHd02YJcVQZfCj5SQeivjEGc0dximYjLTNP2QxfLXfgPd0vTS0PImj9eqMPe6AYqppxOVEM5WDPmYuQFrfmjKGDt8bkhJ1c3QLdg957d6kgdvdhYNOKyJH5M6TB5QRjbqaD/NhSNnbioRC+gVJn7z01Q4kBSmRgmMA2QHfftf4QBuSXus1DOojY2fjs1Hn0R33zWim6b6aBnjqyWmJgvb0lPOOMABjPcOg4sg93aFFSyabDl/YBBZ2zXUOw0kDCUzWSShrojOu0tzQZkJqa7W4ngMnrsNW6EA2t1jsQkqmUvNpo0dAcZVDNJ8Eh+tPtyMocrHdT9y5YpaldgfIYfkJ3MB2fg6p0bfYMLPyzDYQbGtKX9AxNGbQHTajatIof6rGMVbqIFKqbVhOvX8gzrh4ZMwV9GwioFuMgOWPXOZ5MUqnWKlYyBom1qoRkKXhk1aIHe+Hesmreu3CNfRvIGVdY5rQapaqwbkm1ZoMy2bcaKl24oF1tvFhN2BqzDaQlIwiA9JaM6xDvjZZ3Ut2SyvTt6kRMPnZrMp4xM9XqpQW8yh3a1ebPB0rAd8ivOy5qTzSHylDpIG0doHihoFcMEov1ZTUOToqPBuKGiW2gpC2m55WhsUZnkZAyDOdjnnGxPvbOqoSl62vtLEhWmvqlznFrSNkJq4WnnRZXbJpcQ6kmd88iCsWHPPIQ2VL0QBk89qpko18kXq3WZT4YGCxJq2XbgA6U0FE0A6w0XcbMKVhTLDa7a/Ce3ue+dK8dqgM7snBNKErxs0liDm5cyd4kyyo72RK/s4HI5w0uN2cbSHEQwoqhNVZ0wfkA1os/WOIgcJLLvgNNdLA8bhTkVWbrtYy1dBgcZ2uJ3H16RwvL8FqTzUh+NGm8N7BWgFFOg0HcCeA8rmbC4Yx7++S1UGHjMWdSOBrMm/ExNo+uv08G+uG4JSMlI56xcla6TH4+Yzlhab1icLOOKfseesynSeElJJEN+/0Hzr3JsV/YfNdtr11c0NFEelxIUauKmIyL0zGLehZyeb1FeeGpUCzmWViJz5ooRRsRaW4riNtZuSdpdNF5PoKRG3rHLOnSUzNCNrxenES03sN6uxRz6zy01hQFO5eVzLX3in7UxQkKZi+mkN55lKP//YzEjEshlc6ddpcGLY+ywIfrtfTOPKjrTYc+nd6X5Wo8BD5ZIwhLXSXrZRl8sFrfOfNcsjWFc63Kxr805igaL/NB7fzgf7SdKGP+buOndnJNPYh2Zu/sna43oaTKxGwTvK0T/bPxYepg4RldP/VQQFJ/Xnk9NGvca9zkY724lZvkFKStPEGuW9sr00NtHE1N2IliM4krxwOmZVoWoqEWz5SJ/tNYM4EjkiquMoUKa8cs+z2NZwgoJlhYDmEpba5wu3i6DPzlgC8ZJ6dcnJtcNlxi8WBe89EHmD/ZDKdYtnwHgQ9i31Gqkd5M/cRjxvx65saeZEqs+ZBf2UmwDShSTNbiG4cb30HWUkRfhzm7r5vhULrzqZ9RHOSBsD6dG9NWG7+VOs+DrIpd7USWHPbbIZ74HawolRrPbTfQMR2m4DaFcdJhFHZTSZSzgczsOP8knSt6fGgdpnp4rYY3nD5cU2g28RSE1Iy00LDN4O0dcAO9ewaKvv4Fg/0PP3/72/e//8tff/jHP3797Zef/v7d8///60+/fPe3X376549/+fpPv37/7c/f7X/7Xw==);lineShape=1;" vertex="1" parent="1">
                    <mxGeometry x="129.24937190875062" y="358.6565634756664" width="469.8875868886653" height="439.36006182526285" as="geometry"/>
                </mxCell>
                <mxCell id="25" value="" style="shape=stencil(lZzZkhzHDUW/Zl4rcl+eZfk/FCHKZJgmFRS9/b2RnqjqrouuU+IbNUp0blguLpD1ln/64+Mvv394S+GP79++/v3Dvz/9+v3jW/7LW0qfvnz88O3Td/vXW/75Lf/029dvH/727es/v/z6/t+//7JGrn/94+u/1i/8510ub7MuoRT++/6HNLaR//+Xv76P//zpy9P4tvV8Hj+3Fq7Hzy2F0/gcttCvx8e49akCGRYU89arChQSaFtOKtAaCIwXSxqw5xS35AUmCNgehgpMWJJdQ2xngbiFBAJjP8RnAZjBFpCqExggELfZnQBsOuethh+aoWwjOYEKAm2/pudjhYvLYwtOoEYUaGcBU/hISzLrOp9S6luhJZkBnTed6hbpWOdWRMBsnPZgBnxWvpS2CgZUgp5SYuUzgXzWpTj3u78S6Gf1jh3toZjFlbOAWTnokgmIakTTLjilknancgjk3UJeC+Rd+w+Bw7VdCQzZNHu+UrZ2nmFss8D4utXzRfet0ZbbVs8Lavs9vh7f1RhYU8vQWy5bBDWqYYtinTw+blVsbUtwnjXvpntcAGppLXphAQ2ttq11GV9Aqas5lyzjI4TOFlQfApplSxrXDsN+Pb5sM+l6CCr03Z0/xmfQh+ZcnbkB0OceNaZFPJ+e9+kf4zucT68KFBLqf++7Oj70k6BOHy6eYXQadnxqL+RQhoNSdeugn8P0P4q9N/r9ouffd3D4enzdyln/xw57Xo83/3O2x7kr4OvxXf2bedwICjSGE0gYjMfUFVkQoCOaZuEyQ9lh0muBuIetp0CWSMB8mgiwV592yyIw0U3Moma8/BYcqwnMs56aoQ1wdLNqMDZLSKAZ00UmM4VGp9QVkZtuEzg1Ac2LDu16LWC6JM5i8gz2v8/WttIQcC8mIO4rpz25uhJokiRkdKgmMM4oKtcdV10JyE0vyA26FIPDjoaI6w9N8UCTl5s4e6Vyf0zniygF8xATEGUypBTI5AyXyZLGnYAok2GfQKdkv3eeoSaMPabf4pjqzaab6obBmUh7aLvvPQQGwkHzAvkcHgzQoPYVPSVDNATJzfWJvzdIk8j1JUWQzbwxbTpu5awabfCSXGrUedMWguRYe+Ig1zXjNBxEZMQKuyJQ94O+iusSggwJUV5uwCGcL86gUCEkYEj17DW6WTnNEFWX7C+EVYfzS+MG7JmJSvKVMWte6FCWVPbE+wp+9vMp2UETNdfLbl+HQMOEsB95/iEw8OJMN8dZW5c6gmq0qUmwKXwEKGA5Qzo7YzOpCKfUqvJUk7O8ltWAzC0kSkts02f1NsdD3IL5uSp7qKje1bF5C+BQ5pmVhV3+nFLJ6I51bJly/7FjkUNgYshaIbCpAHmNktWAVuS+4XiUH+GENc89Bj5NMW8IQ7cmYrcXJVl+5JgMgQV3EeTvs0UUEeiorotfd8pEJrdYo7OfMf0mmJiG20NG0tOgcz471xUnwUYNnI/zDOZnKHU1AYECFvYoVzSBIp6sbhNsNLmoaP7+ZgZRjZWP0z10TcwsyFFCsOg7CdR9hx9XFycW9KA4LlVDBDImNZbzdEEnYYcfV9oqIcgAUyeBqKSMQTIUSMoatoI5iglMoUHSHgGubFruod3UJcrurA9oPPEeHmnYIdCRdzCBKdRP47pEU+7Q8oFOnq8rUWFBidjq7LzGSlGoAuVqK/WmejOVfysTOf081fOVjgxuCVoEsLBHlOYqZJxPqVS8BwtyErIKu5lVjJFktOy08eU9OAE8JefITIBgpSmfJEG26ZvCnphoYd7BTFSgsQlk0iVHFZeDjLxyZJqyV4T35iqrF6AoeuRIf3ZJVWPc2jQtqWhOs5SP3H1yMxSuW0elHZbywQyr7jdUIMMpxaFZ0yJnqFjftB3ADIjiQ6w75fskQFE0lj2TfBIgbY3J6VLez+21QFR4XxKa6HS6l3Z48zqPUyJ+UWRUudJCVDmC6mun5BQvYUCMe8b2PB4uOTiPlDARcCz8Kv/CBQTNlmx8xfWEouMpB3Vkg3lxSn28jw+YHwZHUAZMooNG2hUZQaODa/XgQOvYGBtPlavoWnom+yGtUJSA+plcNODKZNJkoXBl0o+PyJUmxbQ2ntJ5v9/jxP7cedp4aqeIrtB4Z4/T+ROiq4Om/ms9P6TPETu2vL1EjDKv7JGSQW/vAcOe9ycB61vBAaiArILzh/mo5Fz5WzeeKrE/Ot5VDPNEf1s13c/M03TNMpe9w/lPzegWkCeYkpRJLYEPNO/69aRxBHkNRCgQipgCGkyRZpMVk8iHdu28XEGPgJDLt1aUJ/4hKI2/YAfhS8dlmQClsebohnMsSLoUZZoMahHv/2iJeBLIFDq6NgktuEgCQ9sclwAFj6nWsARg0zlq38baAyX7SfmHhWBphgNCPyNYyreqg+0JEY4lmdVBOnLxuWvzjAkQJso+o0t408u+3AzEvK4zcXtAOiG71IM74Ep27EBFoLkOUQQa8/6OLSsdWcviep3LvOsela6/GvaumisBqY7UiNHWbro6pongWnaNWDVj/F8cipBfFXVpsWWypIa9UsseROCmTlAdgXdDfhX1rS1i3msConyNXaV5DaGbV7GOLs75pdaZtYzautwmFsNzUCTQIy8pqCPreQ9iV95bvEavWEJaHLurnpNqrIAipDyjq0X7n2cYkdOpoU5g1TqImhrKZa1qCsXpoRzK6FzgGa6gPxHSr2csUnNi9tgurkgpL2HVNjtUP7l/c8Xps2rMytqalBdZpbybSoQrFuIbDFdYMAFqrMiux3UORDOelJ8DH8+sVHk6AQ67xc2A2YlLN272UIarX3bMTyyiSeftKtpSfT67LoaGmK86Sm4ye1z7zugcAgVrsKv5SornGTOUlpRVnMwqNte/NZkmaa5oOzkvXs1X4jUGOjILH8JkDL5pCx9icaOhtvasTe6joj30ohnKKBgfetMMxbw3RaDu+qZHQl3qLmStfitqxwpKuNlfqBfQfk9L23xxtmIpePaOHcF2iKIanZGxXZO2xRUMu0sRXPGcnIDpZnTghHqOLQQmB39INVY7utTCGd2vPo2zLhmEwxmSRlEDiThD1gbIxty8uS1NB7hvaBZt6jFfSGTOrFpOMW9LJaQVlc82XbnmZALivWtEJ7DCuGTsjO5nd6llv5uhuaLtzQzTESGTLs6p90o2uQvas3CE+ZaA8I4DOTK/pMwdk2vT0oNfMYrO7qjZvP/E5T3Iko4m5CsBybIeOPNK+fS1xdwabbrpDCujoIur++8dAo2Vr7jXFjfHWtyr2ML97lmpx5Swv2W6WvjjVfeVq5SLixPbhswZS2CPAx8bD/c8I3aOokOPNVYkpIbL42LBFjRDR2JAMWMlbThwsrh2itNVnUCMiPlWYBewzq/G3KtPTjcMaUjPQ+fxQd+j3DRlO/aq4fOs7rkobPfsjlkq3OjuX92jt+hJwSE3O/SofWEJraANheiJW9BdTy/ji1b0vphtXM2BOp76fprroY/4Xq+6x0MMFQzcCD7iXg3DNtWdP7+S1hCIpYCaXEBDx7ta1aUyxr3w7lX48Y7odTI/1cc1TGuLs6/Ov+/aeAf3wTfNjW5qq9W9QeXvbBTXox4TdhcUF1zNqRMpZMBPHhpanMEvBWTV0dh4hqQdDHHwLSSN9zfRuCTF8I+ulSueSr/kkTCtePQsPGEWepi4mkDk4W1Fhn6VkMWUG/rqEpWGvXnCvYo3sumJCLsEnSHzex5D7N3h3wT2sxC7B8zcbaqf80lYgDLELmWJfMMMR+0rzvyu3FPJmWuTyTGSmbm25FLU1RdPRQP/WaWEHQ0vmkQSApf1WSVZUkRkFJs7JQ7l0fmlVTCiGZyJ5sgPExVgZy4nNdcIF7BxKyvntF73UNnQfftnIm2W3bN49pJZwfgKVlSld051culWG7dWVYbX41JZfISgb//W55rw95NbP77s0Dagm0/yZKXMV/KB5ym80RpPRV51dYmLLz/6Nbj78faPx6fnfvv0+fP7l+ue/79+qs7+9P6Zu/zz/wA=);lineShape=1;" vertex="1" parent="1">
                    <mxGeometry x="597.4805883033991" y="397.169409550227" width="213.12479352022" height="230.51381460048776" as="geometry"/>
                </mxCell>
            </root>
        </mxGraphModel>
    </diagram>
</mxfile>